<svg xmlns="http://www.w3.org/2000/svg" viewBox="0 0 26 26" enable-background="new 0 0 26 26" width="26" height="26" style="fill: rgb(189, 195, 199);">
    <path style="text-indent:0;text-align:start;line-height:normal;text-transform:none;block-progression:tb;-inkscape-font-specification:Bitstream Vera Sans" d="M 13 1 C 6.3844277 1 1 6.3844277 1 13 C 1 19.615572 6.3844277 25 13 25 C 19.615572 25 25 19.615572 25 13 C 25 6.3844277 19.615572 1 13 1 z M 13 3 C 18.534692 3 23 7.4653079 23 13 C 23 18.534692 18.534692 23 13 23 C 7.4653079 23 3 18.534692 3 13 C 3 7.4653079 7.4653079 3 13 3 z M 17.1875 7.0625 C 17.0375 7.0875 16.9125 7.1625 16.8125 7.3125 L 11.90625 14.59375 L 9.59375 12.3125 C 9.39375 12.0125 9.0125 11.9875 8.8125 12.1875 L 7.90625 13.09375 C 7.70625 13.39375 7.70625 13.8 7.90625 14 L 11.40625 17.5 C 11.60625 17.6 11.8875 17.8125 12.1875 17.8125 C 12.3875 17.8125 12.70625 17.70625 12.90625 17.40625 L 18.90625 8.59375 C 19.10625 8.29375 18.99375 8.0125 18.59375 7.8125 L 17.59375 7.09375 C 17.49375 7.04375 17.3375 7.0375 17.1875 7.0625 z" color="#000" overflow="visible" enable-background="accumulate" font-family="Bitstream Vera Sans"/>
</svg>